{
    "asset" : {
        "generator" : "Khronos glTF Blender I/O v1.8.19",
        "version" : "2.0"
    },
    "scene" : 0,
    "scenes" : [
        {
            "name" : "Scene",
            "nodes" : [
                10
            ]
        }
    ],
    "nodes" : [
        {
            "mesh" : 0,
            "name" : "group_0",
            "rotation" : [
                0,
                0.7071068286895752,
                0,
                0.7071067094802856
            ],
            "translation" : [
                149.2126007080078,
                0,
                0
            ]
        },
        {
            "mesh" : 1,
            "name" : "group_0.001",
            "rotation" : [
                0,
                0.7071068286895752,
                0,
                0.7071067094802856
            ],
            "translation" : [
                149.2126007080078,
                0,
                0
            ]
        },
        {
            "mesh" : 2,
            "name" : "group_0.002",
            "rotation" : [
                0,
                0.7071068286895752,
                0,
                0.7071067094802856
            ],
            "translation" : [
                149.2126007080078,
                0,
                0
            ]
        },
        {
            "mesh" : 3,
            "name" : "group_0.003",
            "rotation" : [
                0,
                0.7071068286895752,
                0,
                0.7071067094802856
            ],
            "translation" : [
                149.2126007080078,
                0,
                0
            ]
        },
        {
            "mesh" : 4,
            "name" : "group_0.004",
            "rotation" : [
                0,
                0.7071068286895752,
                0,
                0.7071067094802856
            ],
            "translation" : [
                149.2126007080078,
                0,
                0
            ]
        },
        {
            "mesh" : 5,
            "name" : "group_0.005",
            "rotation" : [
                0,
                0.7071068286895752,
                0,
                0.7071067094802856
            ],
            "translation" : [
                149.2126007080078,
                0,
                0
            ]
        },
        {
            "mesh" : 6,
            "name" : "group_0.006",
            "rotation" : [
                0,
                0.7071068286895752,
                0,
                0.7071067094802856
            ],
            "translation" : [
                149.2126007080078,
                0,
                0
            ]
        },
        {
            "mesh" : 7,
            "name" : "group_0.007",
            "rotation" : [
                0,
                0.7071068286895752,
                0,
                0.7071067094802856
            ],
            "translation" : [
                149.2126007080078,
                0,
                0
            ]
        },
        {
            "mesh" : 8,
            "name" : "group_0.009",
            "rotation" : [
                0,
                0.7071068286895752,
                0,
                0.7071067094802856
            ],
            "translation" : [
                149.2126007080078,
                0,
                0
            ]
        },
        {
            "mesh" : 9,
            "name" : "group_0.010",
            "rotation" : [
                0,
                0.7071068286895752,
                0,
                0.7071067094802856
            ],
            "translation" : [
                149.2126007080078,
                0,
                0
            ]
        },
        {
            "children" : [
                0,
                1,
                2,
                3,
                4,
                5,
                6,
                7,
                8,
                9
            ],
            "name" : "SketchUp",
            "scale" : [
                0.02539999969303608,
                0.02539999969303608,
                0.02539999969303608
            ]
        }
    ],
    "materials" : [
        {
            "doubleSided" : true,
            "name" : "wood.002",
            "pbrMetallicRoughness" : {
                "baseColorTexture" : {
                    "index" : 0
                },
                "metallicFactor" : 0,
                "roughnessFactor" : 0.5
            }
        },
        {
            "doubleSided" : true,
            "name" : "wood.003",
            "pbrMetallicRoughness" : {
                "baseColorTexture" : {
                    "index" : 1
                },
                "metallicFactor" : 0,
                "roughnessFactor" : 0.5
            }
        },
        {
            "doubleSided" : true,
            "name" : "wood",
            "pbrMetallicRoughness" : {
                "baseColorTexture" : {
                    "index" : 2
                },
                "metallicFactor" : 0,
                "roughnessFactor" : 0.5
            }
        },
        {
            "doubleSided" : true,
            "name" : "material",
            "pbrMetallicRoughness" : {
                "metallicFactor" : 0,
                "roughnessFactor" : 0.5
            }
        }
    ],
    "meshes" : [
        {
            "name" : "ID4",
            "primitives" : [
                {
                    "attributes" : {
                        "POSITION" : 0,
                        "NORMAL" : 1,
                        "TEXCOORD_0" : 2
                    },
                    "indices" : 3,
                    "material" : 0
                }
            ]
        },
        {
            "name" : "ID17",
            "primitives" : [
                {
                    "attributes" : {
                        "POSITION" : 4,
                        "NORMAL" : 5,
                        "TEXCOORD_0" : 6
                    },
                    "indices" : 7,
                    "material" : 1
                }
            ]
        },
        {
            "name" : "ID25",
            "primitives" : [
                {
                    "attributes" : {
                        "POSITION" : 8,
                        "NORMAL" : 9,
                        "TEXCOORD_0" : 10
                    },
                    "indices" : 11,
                    "material" : 2
                }
            ]
        },
        {
            "name" : "ID33",
            "primitives" : [
                {
                    "attributes" : {
                        "POSITION" : 12,
                        "NORMAL" : 13,
                        "TEXCOORD_0" : 14
                    },
                    "indices" : 15,
                    "material" : 2
                }
            ]
        },
        {
            "name" : "ID41",
            "primitives" : [
                {
                    "attributes" : {
                        "POSITION" : 16,
                        "NORMAL" : 17,
                        "TEXCOORD_0" : 18
                    },
                    "indices" : 19,
                    "material" : 2
                }
            ]
        },
        {
            "name" : "ID49",
            "primitives" : [
                {
                    "attributes" : {
                        "POSITION" : 20,
                        "NORMAL" : 21,
                        "TEXCOORD_0" : 22
                    },
                    "indices" : 23,
                    "material" : 2
                }
            ]
        },
        {
            "name" : "ID57",
            "primitives" : [
                {
                    "attributes" : {
                        "POSITION" : 24,
                        "NORMAL" : 25,
                        "TEXCOORD_0" : 26
                    },
                    "indices" : 27,
                    "material" : 2
                }
            ]
        },
        {
            "name" : "ID65",
            "primitives" : [
                {
                    "attributes" : {
                        "POSITION" : 28,
                        "NORMAL" : 29,
                        "TEXCOORD_0" : 30
                    },
                    "indices" : 31,
                    "material" : 2
                }
            ]
        },
        {
            "name" : "ID83",
            "primitives" : [
                {
                    "attributes" : {
                        "POSITION" : 32,
                        "NORMAL" : 33
                    },
                    "indices" : 34,
                    "material" : 3
                }
            ]
        },
        {
            "name" : "ID91",
            "primitives" : [
                {
                    "attributes" : {
                        "POSITION" : 35,
                        "NORMAL" : 36,
                        "TEXCOORD_0" : 37
                    },
                    "indices" : 38,
                    "material" : 2
                }
            ]
        }
    ],
    "textures" : [
        {
            "sampler" : 0,
            "source" : 0
        },
        {
            "sampler" : 0,
            "source" : 0
        },
        {
            "sampler" : 0,
            "source" : 0
        }
    ],
    "images" : [
        {
            "mimeType" : "image/png",
            "name" : "wood",
            "uri" : "wood.png"
        }
    ],
    "accessors" : [
        {
            "bufferView" : 0,
            "componentType" : 5126,
            "count" : 57,
            "max" : [
                59.055118560791016,
                88.36368560791016,
                -70.18586730957031
            ],
            "min" : [
                59.055118560791016,
                83.84823608398438,
                -74.62446594238281
            ],
            "type" : "VEC3"
        },
        {
            "bufferView" : 1,
            "componentType" : 5126,
            "count" : 57,
            "type" : "VEC3"
        },
        {
            "bufferView" : 2,
            "componentType" : 5126,
            "count" : 57,
            "type" : "VEC2"
        },
        {
            "bufferView" : 3,
            "componentType" : 5123,
            "count" : 66,
            "type" : "SCALAR"
        },
        {
            "bufferView" : 4,
            "componentType" : 5126,
            "count" : 41,
            "max" : [
                59.055118560791016,
                88.23788452148438,
                -64.92776489257812
            ],
            "min" : [
                59.055118560791016,
                85.67959594726562,
                -67.75167846679688
            ],
            "type" : "VEC3"
        },
        {
            "bufferView" : 5,
            "componentType" : 5126,
            "count" : 41,
            "type" : "VEC3"
        },
        {
            "bufferView" : 6,
            "componentType" : 5126,
            "count" : 41,
            "type" : "VEC2"
        },
        {
            "bufferView" : 7,
            "componentType" : 5123,
            "count" : 51,
            "type" : "SCALAR"
        },
        {
            "bufferView" : 8,
            "componentType" : 5126,
            "count" : 438,
            "max" : [
                59.055118560791016,
                88.90193176269531,
                -64.19385528564453
            ],
            "min" : [
                57.93700408935547,
                83.30300903320312,
                -68.48564910888672
            ],
            "type" : "VEC3"
        },
        {
            "bufferView" : 9,
            "componentType" : 5126,
            "count" : 438,
            "type" : "VEC3"
        },
        {
            "bufferView" : 10,
            "componentType" : 5126,
            "count" : 438,
            "type" : "VEC2"
        },
        {
            "bufferView" : 11,
            "componentType" : 5123,
            "count" : 636,
            "type" : "SCALAR"
        },
        {
            "bufferView" : 12,
            "componentType" : 5126,
            "count" : 192,
            "max" : [
                59.055118560791016,
                88.36368560791016,
                -70.18586730957031
            ],
            "min" : [
                57.93700408935547,
                83.84823608398438,
                -74.62446594238281
            ],
            "type" : "VEC3"
        },
        {
            "bufferView" : 13,
            "componentType" : 5126,
            "count" : 192,
            "type" : "VEC3"
        },
        {
            "bufferView" : 14,
            "componentType" : 5126,
            "count" : 192,
            "type" : "VEC2"
        },
        {
            "bufferView" : 15,
            "componentType" : 5123,
            "count" : 288,
            "type" : "SCALAR"
        },
        {
            "bufferView" : 16,
            "componentType" : 5126,
            "count" : 1107,
            "max" : [
                59.055118560791016,
                89.03472137451172,
                -69.451904296875
            ],
            "min" : [
                57.93700408935547,
                83.17720794677734,
                -75.3583755493164
            ],
            "type" : "VEC3"
        },
        {
            "bufferView" : 17,
            "componentType" : 5126,
            "count" : 1107,
            "type" : "VEC3"
        },
        {
            "bufferView" : 18,
            "componentType" : 5126,
            "count" : 1107,
            "type" : "VEC2"
        },
        {
            "bufferView" : 19,
            "componentType" : 5123,
            "count" : 1440,
            "type" : "SCALAR"
        },
        {
            "bufferView" : 20,
            "componentType" : 5126,
            "count" : 156,
            "max" : [
                59.055118560791016,
                88.23788452148438,
                -64.92776489257812
            ],
            "min" : [
                57.93700408935547,
                85.67959594726562,
                -67.75167846679688
            ],
            "type" : "VEC3"
        },
        {
            "bufferView" : 21,
            "componentType" : 5126,
            "count" : 156,
            "type" : "VEC3"
        },
        {
            "bufferView" : 22,
            "componentType" : 5126,
            "count" : 156,
            "type" : "VEC2"
        },
        {
            "bufferView" : 23,
            "componentType" : 5123,
            "count" : 228,
            "type" : "SCALAR"
        },
        {
            "bufferView" : 24,
            "componentType" : 5126,
            "count" : 1322,
            "max" : [
                59.055118560791016,
                89.03472137451172,
                -81.96553039550781
            ],
            "min" : [
                57.93700408935547,
                83.17720794677734,
                -86.52294158935547
            ],
            "type" : "VEC3"
        },
        {
            "bufferView" : 25,
            "componentType" : 5126,
            "count" : 1322,
            "type" : "VEC3"
        },
        {
            "bufferView" : 26,
            "componentType" : 5126,
            "count" : 1322,
            "type" : "VEC2"
        },
        {
            "bufferView" : 27,
            "componentType" : 5123,
            "count" : 1848,
            "type" : "SCALAR"
        },
        {
            "bufferView" : 28,
            "componentType" : 5126,
            "count" : 202,
            "max" : [
                59.055118560791016,
                88.90193176269531,
                -76.31716918945312
            ],
            "min" : [
                57.93700408935547,
                83.30300903320312,
                -81.0353775024414
            ],
            "type" : "VEC3"
        },
        {
            "bufferView" : 29,
            "componentType" : 5126,
            "count" : 202,
            "type" : "VEC3"
        },
        {
            "bufferView" : 30,
            "componentType" : 5126,
            "count" : 202,
            "type" : "VEC2"
        },
        {
            "bufferView" : 31,
            "componentType" : 5123,
            "count" : 264,
            "type" : "SCALAR"
        },
        {
            "bufferView" : 32,
            "componentType" : 5126,
            "count" : 142,
            "max" : [
                59.055118560791016,
                169.2913360595703,
                0
            ],
            "min" : [
                0,
                110.2362289428711,
                -149.2126007080078
            ],
            "type" : "VEC3"
        },
        {
            "bufferView" : 33,
            "componentType" : 5126,
            "count" : 142,
            "type" : "VEC3"
        },
        {
            "bufferView" : 34,
            "componentType" : 5123,
            "count" : 204,
            "type" : "SCALAR"
        },
        {
            "bufferView" : 35,
            "componentType" : 5126,
            "count" : 66,
            "max" : [
                59.055118560791016,
                169.2913360595703,
                0
            ],
            "min" : [
                0,
                110.2362289428711,
                -149.2126007080078
            ],
            "type" : "VEC3"
        },
        {
            "bufferView" : 36,
            "componentType" : 5126,
            "count" : 66,
            "type" : "VEC3"
        },
        {
            "bufferView" : 37,
            "componentType" : 5126,
            "count" : 66,
            "type" : "VEC2"
        },
        {
            "bufferView" : 38,
            "componentType" : 5123,
            "count" : 192,
            "type" : "SCALAR"
        }
    ],
    "bufferViews" : [
        {
            "buffer" : 0,
            "byteLength" : 684,
            "byteOffset" : 0
        },
        {
            "buffer" : 0,
            "byteLength" : 684,
            "byteOffset" : 684
        },
        {
            "buffer" : 0,
            "byteLength" : 456,
            "byteOffset" : 1368
        },
        {
            "buffer" : 0,
            "byteLength" : 132,
            "byteOffset" : 1824
        },
        {
            "buffer" : 0,
            "byteLength" : 492,
            "byteOffset" : 1956
        },
        {
            "buffer" : 0,
            "byteLength" : 492,
            "byteOffset" : 2448
        },
        {
            "buffer" : 0,
            "byteLength" : 328,
            "byteOffset" : 2940
        },
        {
            "buffer" : 0,
            "byteLength" : 102,
            "byteOffset" : 3268
        },
        {
            "buffer" : 0,
            "byteLength" : 5256,
            "byteOffset" : 3372
        },
        {
            "buffer" : 0,
            "byteLength" : 5256,
            "byteOffset" : 8628
        },
        {
            "buffer" : 0,
            "byteLength" : 3504,
            "byteOffset" : 13884
        },
        {
            "buffer" : 0,
            "byteLength" : 1272,
            "byteOffset" : 17388
        },
        {
            "buffer" : 0,
            "byteLength" : 2304,
            "byteOffset" : 18660
        },
        {
            "buffer" : 0,
            "byteLength" : 2304,
            "byteOffset" : 20964
        },
        {
            "buffer" : 0,
            "byteLength" : 1536,
            "byteOffset" : 23268
        },
        {
            "buffer" : 0,
            "byteLength" : 576,
            "byteOffset" : 24804
        },
        {
            "buffer" : 0,
            "byteLength" : 13284,
            "byteOffset" : 25380
        },
        {
            "buffer" : 0,
            "byteLength" : 13284,
            "byteOffset" : 38664
        },
        {
            "buffer" : 0,
            "byteLength" : 8856,
            "byteOffset" : 51948
        },
        {
            "buffer" : 0,
            "byteLength" : 2880,
            "byteOffset" : 60804
        },
        {
            "buffer" : 0,
            "byteLength" : 1872,
            "byteOffset" : 63684
        },
        {
            "buffer" : 0,
            "byteLength" : 1872,
            "byteOffset" : 65556
        },
        {
            "buffer" : 0,
            "byteLength" : 1248,
            "byteOffset" : 67428
        },
        {
            "buffer" : 0,
            "byteLength" : 456,
            "byteOffset" : 68676
        },
        {
            "buffer" : 0,
            "byteLength" : 15864,
            "byteOffset" : 69132
        },
        {
            "buffer" : 0,
            "byteLength" : 15864,
            "byteOffset" : 84996
        },
        {
            "buffer" : 0,
            "byteLength" : 10576,
            "byteOffset" : 100860
        },
        {
            "buffer" : 0,
            "byteLength" : 3696,
            "byteOffset" : 111436
        },
        {
            "buffer" : 0,
            "byteLength" : 2424,
            "byteOffset" : 115132
        },
        {
            "buffer" : 0,
            "byteLength" : 2424,
            "byteOffset" : 117556
        },
        {
            "buffer" : 0,
            "byteLength" : 1616,
            "byteOffset" : 119980
        },
        {
            "buffer" : 0,
            "byteLength" : 528,
            "byteOffset" : 121596
        },
        {
            "buffer" : 0,
            "byteLength" : 1704,
            "byteOffset" : 122124
        },
        {
            "buffer" : 0,
            "byteLength" : 1704,
            "byteOffset" : 123828
        },
        {
            "buffer" : 0,
            "byteLength" : 408,
            "byteOffset" : 125532
        },
        {
            "buffer" : 0,
            "byteLength" : 792,
            "byteOffset" : 125940
        },
        {
            "buffer" : 0,
            "byteLength" : 792,
            "byteOffset" : 126732
        },
        {
            "buffer" : 0,
            "byteLength" : 528,
            "byteOffset" : 127524
        },
        {
            "buffer" : 0,
            "byteLength" : 384,
            "byteOffset" : 128052
        }
    ],
    "samplers" : [
        {
            "magFilter" : 9729,
            "minFilter" : 9987
        }
    ],
    "buffers" : [
        {
            "byteLength" : 128436,
            "uri" : "wood.bin"
        }
    ]
}
